<svg xmlns="http://www.w3.org/2000/svg" viewBox="0 0 750 500"><g id="freepik--Shadow--inject-125"><path d="M637.6,451.63c0,3.39-117.57,6.13-262.6,6.13S112.4,455,112.4,451.63,230,445.5,375,445.5,637.6,448.25,637.6,451.63Z" style="fill:#f5f5f5"></path></g><g id="freepik--character-1--inject-125"><polygon points="598.54 389.06 72.69 401.38 72.69 311.44 603.6 311.44 598.54 389.06" style="fill:#263238"></polygon><polygon points="598.54 389.06 72.69 401.38 72.69 311.44 603.6 311.44 598.54 389.06" style="isolation:isolate;opacity:0.5"></polygon><g id="freepik--freepik--Car--inject-7--inject-125"><path d="M52.46,334.52v45.61a22.29,22.29,0,0,0,15.7,21.29l3.72,1.13a22,22,0,0,0,7.07,1l24.56-.58a62.22,62.22,0,1,1,120.39-2.86l249.9-5.94a63.4,63.4,0,0,1-.59-8.81,62.22,62.22,0,1,1,124.43.54c0,1.21-.09,2.4-.09,3.6a10.59,10.59,0,0,0,1-.43l8.55-3.81a23.54,23.54,0,0,0,13.85-21.45v-92.9a23.51,23.51,0,0,0-12.57-20.82l-64.23-33.78a3.39,3.39,0,0,1,.42-6.17l7.86-2.82a1.83,1.83,0,0,0-.36-3.55C521.54,199.49,402.84,184,340.44,191.6c-72,8.81-140.95,71.27-140.95,71.27-53-2-102.41,16.45-123.7,25.7a26.61,26.61,0,0,0-14.55,15.87L54,326A27,27,0,0,0,52.46,334.52Z" style="fill:#040C39"></path><path d="M473.87,394.15a60.24,60.24,0,0,1-.54-8.27c0-1.41,0-2.8.13-4.19L428.27,363.2a19.08,19.08,0,0,0-8.35-1.36L262.74,372.16a18.61,18.61,0,0,0-7.37,2l-29.86,15.36A64.69,64.69,0,0,1,224,400.09Z" style="fill:#263238"></path><path d="M621,363.79v-2.37l-25.56,7.82a62.38,62.38,0,0,1,2.24,16.64c0,1.21-.09,2.4-.09,3.6a10.59,10.59,0,0,0,1-.43l8.57-3.81A23.54,23.54,0,0,0,621,363.79Z" style="fill:#263238"></path><path d="M59.72,396.5a22.14,22.14,0,0,0,8.53,4.92L72,402.55a22,22,0,0,0,7.08,1L103.6,403a61.13,61.13,0,0,1-1.92-9.47Z" style="fill:#263238"></path><path d="M535.59,317.82a68,68,0,0,0-67.54,76.47l5.9-.14a62.22,62.22,0,1,1,123.84-8.27c0,1.21-.1,2.4-.1,3.6a10.75,10.75,0,0,0,1-.43l4.91-2.22v-.95a68.13,68.13,0,0,0-68.07-68.06Z" style="fill:#263238"></path><path d="M163.42,317.82a68.06,68.06,0,0,0-65.87,85.27l6-.14A62.21,62.21,0,1,1,224,400.09l6-.15a68.05,68.05,0,0,0-66.59-82.12Z" style="fill:#263238"></path><path d="M222.65,265.48a4.69,4.69,0,0,0,1.37,7.85l26,7.28a17.68,17.68,0,0,0,7.05.53l192.6-23.86A19.64,19.64,0,0,0,462,250.42L487.29,221a6.5,6.5,0,0,0,1.51-3.59c.35-3.35-1.76-6.37-4.69-6.75C438,204.53,379.67,199,342.85,203.46,294.59,209.35,246,245.63,222.65,265.48Z" style="fill:#040C39"></path><path d="M223.52,265.48a4.69,4.69,0,0,0,1.37,7.85l26,7.28a17.7,17.7,0,0,0,7.05.53l188.3-12.9c4.69-.6,11.93-9.21,17.05-16.21L488.15,221a6.44,6.44,0,0,0,1.52-3.59c.34-3.35-1.76-6.37-4.69-6.75-46.13-6.11-104.44-11.67-141.26-7.18C295.45,209.35,246.87,245.63,223.52,265.48Z" style="fill:#fff;isolation:isolate;opacity:0.8"></path><g style="opacity:0.30000000000000004"><path d="M349.34,283.84a2.39,2.39,0,0,1-1.43-3h0a4,4,0,0,1,3.59-2.64l22.92-1a2.34,2.34,0,0,1,.91.13,2.41,2.41,0,0,1,1.45,3.06h0a4,4,0,0,1-3.61,2.63l-22.92,1A2.34,2.34,0,0,1,349.34,283.84Z"></path></g><path d="M519.8,218.16a4.93,4.93,0,0,0-.4,6.94l5.43,5.91a5.1,5.1,0,0,0,2.3,1.39l66.58,18.47a13.81,13.81,0,0,0,3.56.47H610.5c-.69-.46-1.4-.88-2.13-1.27l-64.23-33.81h0a3.27,3.27,0,0,1-1.48-4.38l-20.86,5.22A5,5,0,0,0,519.8,218.16Z" style="fill:#040C39"></path><path d="M105.16,297.27l-22.72-2.48-13,5.34a9.34,9.34,0,0,0-5.53,6.35h0a6.55,6.55,0,0,0,.67,4.92l.23.39a7.16,7.16,0,0,0,7.17,3.5l13.1-1.8A7.66,7.66,0,0,0,88.55,312l15.11-11.47Z" style="fill:#fff;isolation:isolate"></path><path d="M199.54,262.84l3.62,1a8.77,8.77,0,0,0,8.07-1.74c21.06-17.81,57.67-45.14,97.17-57.87a.74.74,0,0,0,.13-1.35l-4.91-2.52C246.63,220.15,199.54,262.84,199.54,262.84Z" style="fill:#040C39"></path><path d="M199.54,262.84l3.62,1a8.77,8.77,0,0,0,8.07-1.74c21.06-17.81,57.67-45.14,97.17-57.87a.74.74,0,0,0,.13-1.35l-4.91-2.52C246.63,220.15,199.54,262.84,199.54,262.84Z" style="fill:#fff;isolation:isolate;opacity:0.8"></path><path d="M415.46,286.89,224,300.58l3.61,23.62a49.89,49.89,0,0,0,7.85,20.22l16,23.92,163.42-22.1,77.27-59.35Z" style="fill:#fff;isolation:isolate;opacity:0.2"></path><circle cx="535.53" cy="385.87" r="51.84" style="fill:#263238"></circle><circle cx="535.53" cy="385.87" r="31.78" style="fill:#fff;isolation:isolate;opacity:0.4"></circle><g style="opacity:0.30000000000000004"><rect x="532.99" y="357.29" width="5.09" height="21.37" rx="2.54" style="fill:#fff"></rect></g><g style="opacity:0.30000000000000004"><rect x="532.99" y="393.1" width="5.09" height="21.37" rx="2.54" style="fill:#fff"></rect></g><g style="opacity:0.30000000000000004"><path d="M545.24,383.21a2.54,2.54,0,0,1-3.46-.95h0a2.54,2.54,0,0,1,.93-3.46l14.1-8.19a2.56,2.56,0,0,1,3.49.94h0a2.56,2.56,0,0,1-.94,3.47l-14.09,8.18Z" style="fill:#fff"></path></g><g style="opacity:0.30000000000000004"><path d="M514.23,401a2.54,2.54,0,0,1-3.46-.93h0a2.53,2.53,0,0,1,.93-3.46l14.1-8.19h0a2.53,2.53,0,0,1,3.47.92h0a2.54,2.54,0,0,1-.92,3.48L514.24,401Z" style="fill:#fff"></path></g><g style="opacity:0.30000000000000004"><path d="M556.81,401.1l-14.1-8.18a2.56,2.56,0,0,1-.93-3.49h0a2.57,2.57,0,0,1,3.49-.92l14.09,8.19a2.56,2.56,0,0,1,.94,3.47h0A2.55,2.55,0,0,1,556.81,401.1Z" style="fill:#fff"></path></g><g style="opacity:0.30000000000000004"><path d="M529.27,382.27a2.54,2.54,0,0,1-3.47.92L511.7,375h0a2.53,2.53,0,0,1-.93-3.46h0a2.55,2.55,0,0,1,3.47-.93l14.11,8.19h0a2.53,2.53,0,0,1,.91,3.47h0Z" style="fill:#fff"></path></g><path d="M531.27,385.86a4.26,4.26,0,0,1,4.26-4.26h0a4.28,4.28,0,1,1-4.27,4.28Z" style="fill:#263238"></path><circle cx="163.42" cy="385.88" r="51.84" style="fill:#263238"></circle><circle cx="163.42" cy="385.88" r="31.78" style="fill:#fff;isolation:isolate;opacity:0.4"></circle><g style="opacity:0.30000000000000004"><rect x="160.87" y="357.29" width="5.09" height="21.37" rx="2.54" style="fill:#fff"></rect></g><g style="opacity:0.30000000000000004"><rect x="160.87" y="393.1" width="5.09" height="21.37" rx="2.54" style="fill:#fff"></rect></g><g style="opacity:0.30000000000000004"><path d="M173.11,383.21a2.51,2.51,0,0,1-3.43-.95h0a2.53,2.53,0,0,1,.91-3.47l14.12-8.19h0a2.54,2.54,0,0,1,3.47.94h0a2.54,2.54,0,0,1-.94,3.47l-14.09,8.18Z" style="fill:#fff"></path></g><g style="opacity:0.30000000000000004"><path d="M138.65,400.11h0a2.53,2.53,0,0,1,.93-3.46l14.1-8.19a2.55,2.55,0,0,1,3.49.92h0a2.55,2.55,0,0,1-.94,3.48L142.14,401A2.56,2.56,0,0,1,138.65,400.11Z" style="fill:#fff"></path></g><g style="opacity:0.30000000000000004"><path d="M188.17,400.18a2.52,2.52,0,0,1-3.46.92l-14.12-8.18a2.56,2.56,0,0,1-.91-3.49h0a2.54,2.54,0,0,1,3.47-.92l14.09,8.19h0a2.55,2.55,0,0,1,.93,3.47h0Z" style="fill:#fff"></path></g><g style="opacity:0.30000000000000004"><path d="M157.15,382.29a2.53,2.53,0,0,1-3.47.9L139.58,375h0a2.53,2.53,0,0,1-.93-3.46h0a2.56,2.56,0,0,1,3.49-.94l14.09,8.19h0a2.55,2.55,0,0,1,.93,3.47h0Z" style="fill:#fff"></path></g><path d="M163.42,381.6h0a4.28,4.28,0,1,1-4.27,4.28A4.28,4.28,0,0,1,163.42,381.6Z" style="fill:#263238"></path><path d="M615.52,288.09a3.27,3.27,0,0,0,2.15-4.1c-.6-10.92-2.92-20.63-9.61-27.31a3.28,3.28,0,0,0-3.39-2.31l-39.5,3.73a3.21,3.21,0,0,0-1.85.83,3.26,3.26,0,0,0-.23,4.62l11.31,12.2a3.29,3.29,0,0,0,1.44.9l37.82,11.46A3.36,3.36,0,0,0,615.52,288.09Z" style="isolation:isolate;opacity:0.30000000000000004"></path><path d="M221.19,268a4.46,4.46,0,0,0,2.83,5.34l26,7.28a28.81,28.81,0,0,0,7.22,1.24l8.18-.55-7.72-41.67c-17.81,11.7-19,12.24-35,25.86A4.45,4.45,0,0,0,221.19,268Z" style="fill:#263238"></path><path d="M390.41,202.12l-16.32,71.16,21.35-1.54,9.74-69Q397.7,202.36,390.41,202.12Z" style="fill:#263238"></path><path d="M458.14,258.43l30-37.45a6.45,6.45,0,0,0,1.55-3.64C490,214,487.9,211,485,210.6c-6.14-.83-12.68-1.63-19.21-2.42" style="fill:#263238"></path><path d="M244.81,275.2a9.39,9.39,0,0,1-9.5-9.28h0a9.42,9.42,0,0,1,7.27-9.28l12.52-2.93,3.19,21-13.23.51Z" style="fill:#040C39"></path><polygon points="254.62 274.83 258.29 274.69 255.1 253.71 251.53 254.55 254.62 274.83" style="isolation:isolate;opacity:0.30000000000000004"></polygon></g><path d="M378.69,364.8h-.05a.24.24,0,0,1-.19-.29c.13-.65,13.82-64.89,15.57-73.64.67-3.36.92-9.78.72-19.11a.25.25,0,0,1,.25-.25h0a.25.25,0,0,1,.25.24c.2,9.36-.05,15.83-.73,19.22-1.75,8.75-15.44,73-15.58,73.64A.24.24,0,0,1,378.69,364.8Z" style="opacity:0.6000000000000001"></path><path d="M255.37,374.44a.26.26,0,0,1-.21-.11c-.17-.26-17.83-26.4-23.9-37.33C225,325.75,221,271.84,220.82,269.55a.26.26,0,0,1,.23-.27.25.25,0,0,1,.27.23c0,.56,4.2,56.09,10.38,67.25,6.05,10.91,23.7,37,23.88,37.29a.25.25,0,0,1-.07.35A.33.33,0,0,1,255.37,374.44Z" style="opacity:0.6000000000000001"></path><path d="M82.44,295a.25.25,0,0,1-.09-.48c13.54-5.54,57-16,67.14-17.61,12.83-2.06,56.67-12.88,57.11-13a.25.25,0,0,1,.3.19.24.24,0,0,1-.18.3c-.44.11-44.3,10.93-57.16,13-9.89,1.59-53.82,12.18-67,17.58A.2.2,0,0,1,82.44,295Z" style="opacity:0.6000000000000001"></path><path d="M519.8,218.16a4.93,4.93,0,0,0-.4,6.94l5.43,5.91a5.1,5.1,0,0,0,2.3,1.39l66.58,18.47a13.81,13.81,0,0,0,3.56.47H610.5c-.69-.46-1.4-.88-2.13-1.27l-64.23-33.81h0a3.27,3.27,0,0,1-1.48-4.38l-20.86,5.22A5,5,0,0,0,519.8,218.16Z" style="fill:#fff;isolation:isolate;opacity:0.8"></path><path d="M269.71,260.72c-.6.36-7.67,7.67-7.67,7.67l1.38,9.06,8.89-9.18Z" style="fill:#263238"></path><path d="M280.36,279.61h0a3.16,3.16,0,0,1-4.23-1.43L262,249.6a3.15,3.15,0,0,1,1.43-4.22h0a3.15,3.15,0,0,1,4.23,1.43l14.1,28.58A3.15,3.15,0,0,1,280.36,279.61Z" style="fill:#263238"></path><path d="M295.75,245.21s7,27.92,11.09,29c7.44,1.91,33-.23,32.5-1.05l-1.08-12.84s-25.77,4.26-25.57,3.81L303,242.4Z" style="fill:#ebb373"></path><path d="M302.18,244.09s2.3-2.14,2.36-4.74.81-4.65.72-6.58-1.7.12-2.34,1.38-1.38,2.7-2.25,2.06-4.67-9.1-6-9.84-1.12.82-1.12.82-1-2-1.89-1.86c-.24,0-.72.53-.41,1.52.67,2.24,2.33,6.87,2.33,6.87-.09-.27-2.55-5.83-3-6.62-.63-1-1.44-1.19-2-.81-.83.54,2,7.54,1.9,7.92,0,0-1.49-4.08-2.75-4.28s-.47,2.43.67,4.61c1,2,2.57,6.19,3.83,8.12,1.55,2.37,3.12,3.62,5.75,3.22A9,9,0,0,0,302.18,244.09Z" style="fill:#ebb373"></path><path d="M295.75,232.59a.12.12,0,0,1-.12-.08c-.59-1.7-1.26-3.39-2-5a.12.12,0,0,1,.07-.17.12.12,0,0,1,.16.06c.74,1.65,1.42,3.34,2,5.05a.12.12,0,0,1-.07.16Z" style="opacity:0.30000000000000004"></path><path d="M291,235.94a.13.13,0,0,1-.1,0,.14.14,0,0,1,0-.18,12.22,12.22,0,0,1,6.43-2.69.13.13,0,0,1,.14.12.12.12,0,0,1-.11.13,11.9,11.9,0,0,0-6.3,2.64Z" style="opacity:0.30000000000000004"></path><path d="M298.51,242.37a.13.13,0,0,1-.12-.08,4.26,4.26,0,0,1,1.64-5.17.12.12,0,0,1,.17,0,.12.12,0,0,1,0,.17,4,4,0,0,0-1.54,4.86.13.13,0,0,1-.06.17Z" style="opacity:0.30000000000000004"></path><path d="M368.74,258.36c-4.68-6.18-12.11-5.56-16.94-4.71l-9.56,1.57a5.38,5.38,0,0,0-.9.22l-2.18.67-20.47,6.56,4.94,13.1,6.69-.82-1.12,1.81,6.56-.42h0l35.81-1.87h0v-7.26A14.64,14.64,0,0,0,368.74,258.36Z" style="fill:#263238"></path><path d="M366.8,268.67s-4.49,30.11-7.67,33.3c-7.58,7.62-35.65-13.34-35.65-13.34l.87-8.09,24.24,10L353.13,265Z" style="fill:#ebb373"></path><path d="M370.49,266.62c-.22.74-2.15,21.75-2.15,21.75l-20.56-1.92s1.07-5.83,2.62-16c1.63-10.63,2.57-16,7.84-16.86C368.21,251.92,370.49,266.62,370.49,266.62Z" style="fill:#263238"></path><path d="M363.6,219.05c3.1,5.44,4.18,8.69,4.46,13.91.33,6.09.05,11.47-1.31,13-1.78,2-21.06,4-31.87,3.53-.39,0-.71-3.44-.71-3.44s-1.53,3.35-2,3.32c-2.95-.13-4.84-.24-4.84-.24s2.45-5,5.44-23.18c1.46-8.86,10.38-12.4,15.63-13.07C357.12,211.8,363.6,219.05,363.6,219.05Z" style="fill:#263238"></path><path d="M337.91,236.17c-2.83-4.89-5.64-18.07,6.15-22.13,14.71-5.08,21.29,4.3,22.56,13.6s-4,16.32-13.7,15.62S339.86,239.56,337.91,236.17Z" style="fill:#263238"></path><path d="M358.33,236.83l-8.69,8L348,246.61a16.3,16.3,0,0,1,1,3.79,5.56,5.56,0,0,1-1.09,3.84l-1.95,4.44c4.35-3.41,14.26-5.24,14.26-5.24A45.41,45.41,0,0,1,358.33,236.83Z" style="fill:#ebb373"></path><path d="M349,250.88c2.34-1.25,5-3.48,4.78-6.18a12.47,12.47,0,0,0-.51-2.92l-4.93,5.92A15.23,15.23,0,0,1,349,250.88Z" style="opacity:0.2"></path><path d="M361.1,228c-1.18,8.5-1.5,12.11-6.11,16.38-6.93,6.42-17,3.68-18.37-4.85-1.23-7.69.9-20.29,9.44-23.48A11,11,0,0,1,361.1,228Z" style="fill:#ebb373"></path><path d="M350.26,230.55c-.09.86-.65,1.54-1.25,1.52s-1-.72-.94-1.58.65-1.54,1.25-1.52S350.35,229.69,350.26,230.55Z" style="fill:#263238"></path><path d="M341.4,230c-.09.82-.64,1.47-1.23,1.46s-1-.7-.92-1.51.64-1.47,1.23-1.46S341.48,229.16,341.4,230Z" style="fill:#263238"></path><path d="M351.61,227.45a.39.39,0,0,1-.33-.08,3.56,3.56,0,0,0-3.08-.64.41.41,0,0,1-.54-.26.46.46,0,0,1,.32-.54,4.4,4.4,0,0,1,3.9.77.39.39,0,0,1,0,.59A.47.47,0,0,1,351.61,227.45Z" style="fill:#263238"></path><path d="M338.57,225.7a.39.39,0,0,1-.19-.23.42.42,0,0,1,.3-.51,4.4,4.4,0,0,1,3.86.56.38.38,0,0,1,0,.57.46.46,0,0,1-.61,0,3.54,3.54,0,0,0-3.06-.41A.44.44,0,0,1,338.57,225.7Z" style="fill:#263238"></path><path d="M354.32,220c-2.84,2.72-2,13.55,5.56,15.31C368.75,233.69,362.82,211.91,354.32,220Z" style="fill:#263238"></path><path d="M343.28,238.05a24.59,24.59,0,0,1,1.38,3.21l.61-.1c2.74-.51,3.85-1.66,4.24-2.77a3.65,3.65,0,0,0,.14-1.7,3.59,3.59,0,0,0-.26-.94c-1.29,1.14-3.82,1.81-5.18,2.11C343.64,238,343.28,238.05,343.28,238.05Z" style="fill:#263238"></path><path d="M344.21,237.86l.43.94c2.59-.49,4.34-1.18,5-2.11a3.59,3.59,0,0,0-.26-.94C348.1,236.89,345.57,237.56,344.21,237.86Z" style="fill:#fff"></path><path d="M345.27,241.16c2.74-.51,3.85-1.66,4.24-2.77a9,9,0,0,0-2.93,1.17A3.34,3.34,0,0,0,345.27,241.16Z" style="fill:#dc5753"></path><path d="M343.82,229.49a26.28,26.28,0,0,1-3.55,5.58c1,1.1,3,.64,3,.64Z" style="fill:#e4873e"></path><path d="M347.64,228.48l1.94.56C348.64,230,347.64,228.48,347.64,228.48Z" style="fill:#263238"></path><path d="M338.9,228l1.93.56C339.9,229.5,338.9,228,338.9,228Z" style="fill:#263238"></path><path d="M346.21,214.17c-3.43,1-7.27,6.65-8,8.87,4.75,1,17.87-2.89,17.87-2.89s8.51,2.78,4.34-1.79S346.21,214.17,346.21,214.17Z" style="fill:#263238"></path><path d="M363.36,235a6.9,6.9,0,0,1-4.3,3c-2.28.46-3.28-3.23-2.41-5.45a4.53,4.53,0,0,1,5.25-2.7C364,230.44,364.6,233.08,363.36,235Z" style="fill:#ebb373"></path><path d="M323.76,248.32l-.26-.43c3.2-1.92,6.25-9.39,7.55-12.58a52.8,52.8,0,0,0,2.73-11l.5.09a53.64,53.64,0,0,1-2.77,11.06C330.08,239,327.1,246.31,323.76,248.32Z" style="fill:#263238"></path><path d="M358.39,237.8a1.59,1.59,0,1,0,1.66-1.51A1.58,1.58,0,0,0,358.39,237.8Z" style="fill:#040C39"></path><path d="M358.28,235h0a.25.25,0,0,1-.23-.27,2.85,2.85,0,0,1,3.73-2.47.26.26,0,0,1,.16.32.25.25,0,0,1-.32.16,2.34,2.34,0,0,0-3.07,2A.25.25,0,0,1,358.28,235Z" style="opacity:0.1"></path><path d="M333.89,286.14l-9.54-5.6-2.6-3.33s-2.68-3.16-4.84-3.37a6.77,6.77,0,0,0-3.14.66s-2.5,1.58-1,4c0,0-2.47,1.27-.79,4,0,0-2.37.05-.34,2.53a9.14,9.14,0,0,0,6.32,3.26,11.61,11.61,0,0,0,4.19-.37l10.53,6.92Z" style="fill:#ebb373"></path><polyline points="349.58 275.65 351.3 264.86 346.05 275.77 349.58 275.65"></polyline><polygon points="330.32 274.95 334.61 266.24 326.37 275.44 330.32 274.95"></polygon></g></svg>
